<?xml version="1.0" standalone="no"?>
<!DOCTYPE svg PUBLIC "-//W3C//DTD SVG 20010904//EN"
 "http://www.w3.org/TR/2001/REC-SVG-20010904/DTD/svg10.dtd">
<svg version="1.0" xmlns="http://www.w3.org/2000/svg"
 width="242" height="144" viewBox="6.5 57.0 242.5 144.0"
 preserveAspectRatio="xMidYMid meet">
<metadata>
Created by potrace 1.16, written by Peter Selinger 2001-2019
</metadata>
<g transform="translate(0.000000,250.000000) scale(0.100000,-0.100000)"
fill="#DC5C30" stroke="none">
<path d="M867 1759 c-159 -37 -311 -209 -352 -396 -6 -32 -6 -33 28 -33 79 0
93 8 111 65 22 70 95 168 152 205 90 57 179 61 278 15 49 -23 50 -23 75 -5 14
10 35 28 46 40 20 22 20 22 0 37 -90 67 -231 97 -338 72z"/>
<path d="M1492 1754 c-88 -23 -158 -67 -282 -175 -270 -235 -466 -309 -819
-309 -145 0 -164 -7 -164 -60 0 -52 20 -60 152 -60 116 0 116 0 133 -76 64
-279 279 -456 508 -416 90 16 172 62 289 160 176 147 212 173 326 227 155 75
254 96 479 103 156 4 181 7 197 23 25 25 24 54 -1 79 -18 18 -33 20 -140 20
-120 0 -120 0 -125 28 -33 163 -78 256 -164 343 -115 114 -245 152 -389 113z
m229 -140 c90 -49 164 -159 194 -286 8 -34 13 -63 12 -65 -2 -1 -38 -9 -82
-18 -108 -22 -254 -78 -345 -130 -41 -24 -138 -97 -215 -161 -169 -140 -238
-178 -335 -178 -55 -1 -74 4 -120 30 -98 55 -182 187 -204 320 -5 31 -5 31 82
48 188 37 351 121 538 278 65 55 138 113 160 129 108 74 217 86 315 33z"/>
<path d="M1360 1472 c-43 -38 -43 -38 20 -85 70 -53 166 -108 222 -128 31 -11
40 -10 62 5 31 20 35 65 9 89 -10 8 -43 26 -73 40 -30 13 -83 45 -116 71 -34
25 -66 46 -72 46 -5 0 -29 -17 -52 -38z"/>
<path d="M882 1154 c-22 -15 -30 -57 -14 -80 4 -6 41 -28 82 -47 41 -20 99
-54 128 -77 29 -22 56 -40 60 -40 17 1 85 67 78 78 -26 42 -252 182 -294 182
-10 0 -28 -7 -40 -16z"/>
<path d="M1934 1083 c-15 -3 -25 -19 -37 -57 -36 -113 -132 -212 -234 -242
-68 -20 -124 -14 -195 20 -51 24 -52 24 -77 6 -14 -10 -35 -27 -45 -39 -19
-21 -19 -22 0 -36 33 -26 117 -62 173 -75 147 -35 323 43 422 186 33 48 83
161 94 212 7 32 7 32 -37 31 -24 -1 -52 -4 -64 -6z"/>
</g>
</svg>
