<svg xmlns="http://www.w3.org/2000/svg" viewBox="0 0 676.5 164.0" width="676" height="164">
  <g transform="translate(2.583,-25.500) scale(0.83333)"><g transform="translate(0.000000,250.000000) scale(0.100000,-0.100000)"
fill="#FFFFFF" stroke="none">
<path d="M867 1759 c-159 -37 -311 -209 -352 -396 -6 -32 -6 -33 28 -33 79 0
93 8 111 65 22 70 95 168 152 205 90 57 179 61 278 15 49 -23 50 -23 75 -5 14
10 35 28 46 40 20 22 20 22 0 37 -90 67 -231 97 -338 72z"/>
<path d="M1492 1754 c-88 -23 -158 -67 -282 -175 -270 -235 -466 -309 -819
-309 -145 0 -164 -7 -164 -60 0 -52 20 -60 152 -60 116 0 116 0 133 -76 64
-279 279 -456 508 -416 90 16 172 62 289 160 176 147 212 173 326 227 155 75
254 96 479 103 156 4 181 7 197 23 25 25 24 54 -1 79 -18 18 -33 20 -140 20
-120 0 -120 0 -125 28 -33 163 -78 256 -164 343 -115 114 -245 152 -389 113z
m229 -140 c90 -49 164 -159 194 -286 8 -34 13 -63 12 -65 -2 -1 -38 -9 -82
-18 -108 -22 -254 -78 -345 -130 -41 -24 -138 -97 -215 -161 -169 -140 -238
-178 -335 -178 -55 -1 -74 4 -120 30 -98 55 -182 187 -204 320 -5 31 -5 31 82
48 188 37 351 121 538 278 65 55 138 113 160 129 108 74 217 86 315 33z"/>
<path d="M1360 1472 c-43 -38 -43 -38 20 -85 70 -53 166 -108 222 -128 31 -11
40 -10 62 5 31 20 35 65 9 89 -10 8 -43 26 -73 40 -30 13 -83 45 -116 71 -34
25 -66 46 -72 46 -5 0 -29 -17 -52 -38z"/>
<path d="M882 1154 c-22 -15 -30 -57 -14 -80 4 -6 41 -28 82 -47 41 -20 99
-54 128 -77 29 -22 56 -40 60 -40 17 1 85 67 78 78 -26 42 -252 182 -294 182
-10 0 -28 -7 -40 -16z"/>
<path d="M1934 1083 c-15 -3 -25 -19 -37 -57 -36 -113 -132 -212 -234 -242
-68 -20 -124 -14 -195 20 -51 24 -52 24 -77 6 -14 -10 -35 -27 -45 -39 -19
-21 -19 -22 0 -36 33 -26 117 -62 173 -75 147 -35 323 43 422 186 33 48 83
161 94 212 7 32 7 32 -37 31 -24 -1 -52 -4 -64 -6z"/>
</g></g>
  <g transform="matrix(0.09143 0 0 -0.09143 249.395 113.360)"><path d="M73.1497802734375 0.0V700.0H187.6005859375V306.87542724609375H204.5506591796875L383.42462158203125 494.2501220703125H534.1255493164062L294.80126953125 254.77508544921875L542.1255493164062 0.0H393.2496337890625L204.5506591796875 200.8497314453125H187.6005859375V0.0ZM825.7998046875 -8.3499755859375Q768.8497314453125 -8.3499755859375 725.1747436523438 17.362579345703125Q681.499755859375 43.07513427734375 657.0622863769531 89.63766479492188Q632.6248168945312 136.2001953125 632.6248168945312 198.2501220703125V494.2501220703125H747.0756225585938V207.2001953125Q747.0756225585938 147.17547607421875 776.7629699707031 117.86306762695312Q806.4503173828125 88.5506591796875 860.2501220703125 88.5506591796875Q921.2249145507812 88.5506591796875 956.3746948242188 128.97552490234375Q991.5244750976562 169.400390625 991.5244750976562 243.82501220703125V494.2501220703125H1105.9752807617188V0.0H993.5244750976562V69.37469482421875H976.5744018554688Q963.5244750976562 41.92486572265625 929.1245727539062 16.787445068359375Q894.7246704101562 -8.3499755859375 825.7998046875 -8.3499755859375ZM1258.1497802734375 0.0V494.2501220703125H1370.6005859375V438.500244140625H1387.5506591796875Q1400.900634765625 463.8502197265625 1431.4255981445312 483.22515869140625Q1461.9505615234375 502.60009765625 1513.0504150390625 502.60009765625Q1567.100341796875 502.60009765625 1599.8877868652344 480.9626770019531Q1632.6752319335938 459.32525634765625 1649.500244140625 425.4503173828125H1666.4503173828125Q1683.4503173828125 458.500244140625 1715.3252563476562 480.5501708984375Q1747.2001953125 502.60009765625 1805.60009765625 502.60009765625Q1852.300048828125 502.60009765625 1889.7125549316406 482.92510986328125Q1927.1250610351562 463.2501220703125 1949.3625793457031 424.27508544921875Q1971.60009765625 385.300048828125 1971.60009765625 327.22491455078125V0.0H1857.1492919921875V318.7498779296875Q1857.1492919921875 361.67474365234375 1834.3119201660156 384.099609375Q1811.4745483398438 406.52447509765625 1770.1497802734375 406.52447509765625Q1724.5249633789062 406.52447509765625 1698.3126525878906 377.27459716796875Q1672.100341796875 348.02471923828125 1672.100341796875 293.3499755859375V0.0H1557.6495361328125V318.7498779296875Q1557.6495361328125 361.67474365234375 1534.8121643066406 384.099609375Q1511.9747924804688 406.52447509765625 1470.6500244140625 406.52447509765625Q1425.0252075195312 406.52447509765625 1398.8128967285156 377.27459716796875Q1372.6005859375 348.02471923828125 1372.6005859375 293.3499755859375V0.0ZM2410.500244140625 -14.0Q2341.2254028320312 -14.0 2303.738006591797 10.487396240234375Q2266.2506103515625 34.97479248046875 2248.5506591796875 65.07464599609375H2231.6005859375V0.0H2119.1497802734375V700.0H2233.6005859375V432.3504638671875H2250.5506591796875Q2261.900634765625 451.57537841796875 2281.2755737304688 468.7127990722656Q2300.6505126953125 485.8502197265625 2332.3754272460938 497.0501708984375Q2364.100341796875 508.2501220703125 2410.500244140625 508.2501220703125Q2471.5501708984375 508.2501220703125 2522.900146484375 478.57513427734375Q2574.2501220703125 448.900146484375 2605.2501220703125 391.9876403808594Q2636.2501220703125 335.07513427734375 2636.2501220703125 254.77508544921875V239.47503662109375Q2636.2501220703125 159.17498779296875 2605.162628173828 102.26248168945312Q2574.0751342773438 45.3499755859375 2522.7251586914062 15.67498779296875Q2471.3751831054688 -14.0 2410.500244140625 -14.0ZM2376.699951171875 86.20068359375Q2439.0746459960938 86.20068359375 2480.261993408203 126.41299438476562Q2521.4493408203125 166.62530517578125 2521.4493408203125 242.300048828125V251.9500732421875Q2521.4493408203125 327.62481689453125 2480.6744995117188 367.8371276855469Q2439.899658203125 408.0494384765625 2376.699951171875 408.0494384765625Q2314.500244140625 408.0494384765625 2273.2254028320312 367.8371276855469Q2231.9505615234375 327.62481689453125 2231.9505615234375 251.9500732421875V242.300048828125Q2231.9505615234375 166.62530517578125 2273.2254028320312 126.41299438476562Q2314.500244140625 86.20068359375 2376.699951171875 86.20068359375ZM2952.7998046875 -8.3499755859375Q2895.8497314453125 -8.3499755859375 2852.1747436523438 17.362579345703125Q2808.499755859375 43.07513427734375 2784.062286376953 89.63766479492188Q2759.6248168945312 136.2001953125 2759.6248168945312 198.2501220703125V494.2501220703125H2874.0756225585938V207.2001953125Q2874.0756225585938 147.17547607421875 2903.762969970703 117.86306762695312Q2933.4503173828125 88.5506591796875 2987.2501220703125 88.5506591796875Q3048.2249145507812 88.5506591796875 3083.3746948242188 128.97552490234375Q3118.5244750976562 169.400390625 3118.5244750976562 243.82501220703125V494.2501220703125H3232.9752807617188V0.0H3120.5244750976562V69.37469482421875H3103.5744018554688Q3090.5244750976562 41.92486572265625 3056.1245727539062 16.787445068359375Q3021.7246704101562 -8.3499755859375 2952.7998046875 -8.3499755859375ZM3385.1497802734375 0.0V700.0H3499.6005859375V306.87542724609375H3516.5506591796875L3695.4246215820312 494.2501220703125H3846.1255493164062L3606.80126953125 254.77508544921875L3854.1255493164062 0.0H3705.2496337890625L3516.5506591796875 200.8497314453125H3499.6005859375V0.0ZM4102.274841308594 -14.0Q4049.6248168945312 -14.0 4007.7123107910156 4.32501220703125Q3965.7998046875 22.6500244140625 3941.3872985839844 57.887542724609375Q3916.9747924804688 93.12506103515625 3916.9747924804688 143.60009765625Q3916.9747924804688 194.2501220703125 3941.3872985839844 228.31265258789062Q3965.7998046875 262.37518310546875 4008.862335205078 279.6127014160156Q4051.9248657226562 296.8502197265625 4106.874938964844 296.8502197265625H4250.224426269531V326.77508544921875Q4250.224426269531 365.97479248046875 4226.124572753906 390.3121643066406Q4202.024719238281 414.6495361328125 4151.0499267578125 414.6495361328125Q4101.075134277344 414.6495361328125 4075.537811279297 391.399658203125Q4050.00048828125 368.1497802734375 4041.9505615234375 330.82501220703125L3936.099853515625 365.97528076171875Q3948.099853515625 404.8502197265625 3974.5123596191406 436.87518310546875Q4000.9248657226562 468.900146484375 4045.162384033203 488.57513427734375Q4089.39990234375 508.2501220703125 4152.699951171875 508.2501220703125Q4249.6500244140625 508.2501220703125 4305.512603759766 459.42510986328125Q4361.375183105469 410.60009765625 4361.375183105469 318.82501220703125V124.900634765625Q4361.375183105469 94.900634765625 4389.375183105469 94.900634765625H4430.60009765625V0.0H4350.099853515625Q4314.1497802734375 0.0 4291.19970703125 18.087493896484375Q4268.2496337890625 36.17498779296875 4268.2496337890625 66.52496337890625V68.57489013671875H4250.824523925781Q4245.2496337890625 54.82501220703125 4230.112213134766 35.062530517578125Q4214.974792480469 15.300048828125 4184.4498291015625 0.6500244140625Q4153.924865722656 -14.0 4102.274841308594 -14.0ZM4121.125061035156 79.6005859375Q4178.324768066406 79.6005859375 4214.274597167969 112.07537841796875Q4250.224426269531 144.5501708984375 4250.224426269531 199.8497314453125V210.19970703125H4114.475036621094Q4076.500244140625 210.19970703125 4053.962921142578 193.88729858398438Q4031.4255981445312 177.57489013671875 4031.4255981445312 147.07513427734375Q4031.4255981445312 116.57537841796875 4054.962921142578 98.08798217773438Q4078.500244140625 79.6005859375 4121.125061035156 79.6005859375Z" fill="#FFFFFF"/></g>
</svg>
